<mxfile host="app.diagrams.net" modified="2023-06-01T08:30:23.288Z" agent="Mozilla/5.0 (Windows NT 10.0; Win64; x64) AppleWebKit/537.36 (KHTML, like Gecko) Chrome/113.0.0.0 Safari/537.36" version="21.3.5" etag="OqdDCheTAH9QTzyR2w4b" type="github">
  <diagram name="Page-1" id="a8oEQbGMd7Cip_ieRr4v">
    <mxGraphModel>
      <root>
        <mxCell id="0" />
        <mxCell id="1" parent="0" />
      </root>
    </mxGraphModel>
  </diagram>
</mxfile>
